# xmcd
#
# Track frame offsets:
#	150
#	11463
#	28044
#	46921
#	65790
#	77514
#	95010
#	112803
#	129654
#	142866
#	164107
#	178070
#	193633
#	213785
#	229171
#
# Disc length: 3360 seconds
#
# Revision: 0
# Processed by: cddbd v1.5PL3 Copyright (c) Steve Scherf et al.
# Submitted via: dBpowerAMP V4.0
#
DISCID=c90d1e0f
DTITLE=Travis Tritt - Greatest Hits: From The Beginning
DYEAR=1995
DGENRE=Country
TTITLE0=Here's A Quarter (Call Someone Who Cares)
TTITLE1=Anymore
TTITLE2=Put Some Drive In Your Country
TTITLE3=Foolish Pride
TTITLE4=The Whiskey Ain't Workin'
TTITLE5=Help Me Hold On
TTITLE6=I'm Gonna Be Somebody
TTITLE7=Only You (And You Alone)
TTITLE8=T-R-O-U-B-L-E
TTITLE9=Tell Me I Was Dreaming
TTITLE10=Country Club
TTITLE11=Can I Trust You With My Heart
TTITLE12=Sometimes She Forgets
TTITLE13=Ten Feet Tall And Bullet Proof
TTITLE14=Drift Off To A Dream
EXTD=
EXTT0=
EXTT1=
EXTT2=
EXTT3=
EXTT4=
EXTT5=
EXTT6=
EXTT7=
EXTT8=
EXTT9=
EXTT10=
EXTT11=
EXTT12=
EXTT13=
EXTT14=
PLAYORDER=
